<svg xmlns="http://www.w3.org/2000/svg" viewBox="0 0 512 512" id="web-development"><rect width="115" height="25" x="292" y="308.5" rx="2.5" ry="2.5"></rect><path d="M462 371V138.5H0V371a17.52 17.52 0 0 0 17.5 17.5h427A17.52 17.52 0 0 0 462 371ZM267.5 163.5H281a7.5 7.5 0 0 1 0 15h-13.5a7.5 7.5 0 0 1 0-15ZM185 195.35A7.5 7.5 0 1 1 195.88 185l27.05 28.33a7.52 7.52 0 0 1 0 10.36L195.88 252A7.5 7.5 0 1 1 185 241.65l22.1-23.15Zm-68.33-26.5a7.5 7.5 0 0 1 9.42 4.88l27 85a7.5 7.5 0 1 1-14.29 4.54l-27-85a7.5 7.5 0 0 1 4.9-9.42Zm-74.6 44.47L69.12 185A7.5 7.5 0 1 1 80 195.35L57.87 218.5 80 241.65A7.5 7.5 0 0 1 69.12 252l-27.05-28.32a7.52 7.52 0 0 1 0-10.36Zm5.43 80.18h7a7.5 7.5 0 0 1 0 15h-7a7.5 7.5 0 0 1 0-15Zm197 55h-197a7.5 7.5 0 0 1 0-15h197a7.5 7.5 0 0 1 0 15Zm0-40H93a7.5 7.5 0 0 1 0-15h151.5a7.5 7.5 0 0 1 0 15ZM422 331a17.52 17.52 0 0 1-17.5 17.5h-110A17.52 17.52 0 0 1 277 331v-20a17.52 17.52 0 0 1 17.5-17.5h110A17.52 17.52 0 0 1 422 311Zm-7.5-67.5h-147a7.5 7.5 0 0 1 0-15h147a7.5 7.5 0 0 1 0 15Zm0-45h-147a7.5 7.5 0 0 1 0-15h147a7.5 7.5 0 0 1 0 15Zm0-40H316a7.5 7.5 0 0 1 0-15h98.5a7.5 7.5 0 0 1 0 15Z"></path><path d="M494.5 123.5H477V371a32.54 32.54 0 0 1-32.5 32.5H50V421a17.52 17.52 0 0 0 17.5 17.5h427A17.52 17.52 0 0 0 512 421V141a17.52 17.52 0 0 0-17.5-17.5zM462 91a17.52 17.52 0 0 0-17.5-17.5h-427A17.52 17.52 0 0 0 0 91v32.5h462zm-77.5 15h-10a7.5 7.5 0 0 1 0-15h10a7.5 7.5 0 0 1 0 15zm40 0h-10a7.5 7.5 0 0 1 0-15h10a7.5 7.5 0 0 1 0 15z"></path></svg>