<svg xmlns="http://www.w3.org/2000/svg" data-name="Layer 1" viewBox="0 0 168 168" id="statistics"><path fill="#2d4356" d="M128 44a2 2 0 1 0-2-2A2.00229 2.00229 0 0 0 128 44zm0-3a1 1 0 1 1-1 1A1.001 1.001 0 0 1 128 41zM158 8.5a2 2 0 1 0-2-2A2.00229 2.00229 0 0 0 158 8.5zm0-3a1 1 0 1 1-1 1A1.001 1.001 0 0 1 158 5.5zM88 12.5a2 2 0 1 0-2-2A2.00229 2.00229 0 0 0 88 12.5zm0-3a1 1 0 1 1-1 1A1.001 1.001 0 0 1 88 9.5zM12 24a3 3 0 1 0 3 3A3.00344 3.00344 0 0 0 12 24zm0 4.5A1.5 1.5 0 1 1 13.5 27 1.50148 1.50148 0 0 1 12 28.5zM157 50a3 3 0 1 0-3 3A3.00344 3.00344 0 0 0 157 50zm-3 1.5a1.5 1.5 0 1 1 1.5-1.5A1.50148 1.50148 0 0 1 154 51.5zM36 66a2 2 0 1 0-2-2A2.00229 2.00229 0 0 0 36 66zm0-3a1 1 0 1 1-1 1A1.001 1.001 0 0 1 36 63z"></path><circle cx="2" cy="147" r="2" fill="#2d4356"></circle><path fill="#2d4356" d="M11 145H8a2 2 0 0 0 0 4h3a2 2 0 0 0 0-4zM160 145h-3a2 2 0 0 0 0 4h3a2 2 0 0 0 0-4z"></path><circle cx="166" cy="147" r="2" fill="#2d4356"></circle><path fill="#2d4356" d="M150.72131,145H120.21582A7.89654,7.89654,0,0,0,122,140V28a8.05423,8.05423,0,0,0-8.10645-8H54.10638A8.05422,8.05422,0,0,0,46,28V140a7.89649,7.89649,0,0,0,1.78412,5H17.27869a2.017,2.017,0,1,0,0,4H150.72131a2.017,2.017,0,1,0,0-4ZM50,28a4.05861,4.05861,0,0,1,4.10638-4h59.78717A4.05831,4.05831,0,0,1,118,28v8H50Zm0,12h68v88H98V77a2,2,0,0,0-4,0v51H90V88a2,2,0,0,0-4,0v40H82V80a2,2,0,0,0-4,0v48H74V96a2,2,0,0,0-4,0v32H50Zm0,92h68v8a4.05835,4.05835,0,0,1-4.10645,4H54.10638A4.05865,4.05865,0,0,1,50,140Z"></path><path fill="#2d4356" d="M77.28839,62.52362c.04205.0014.08136.01245.12372.01245a3.72233,3.72233,0,0,0,1.09619-.18127l8.35132,5.24457a3.75423,3.75423,0,0,0,7.49194-.36206c0-.05322-.01343-.10272-.01562-.15546L103.375,59.1983a3.69049,3.69049,0,0,0,.38672.039,3.82771,3.82771,0,1,0-3.55591-2.58173l-8.15564,7.1123a3.70987,3.70987,0,0,0-3.3783.24506L81.126,59.27521a3.72441,3.72441,0,0,0,.05078-.50372,3.76466,3.76466,0,1,0-7.212,1.50476L64.642,71.98322a3.70345,3.70345,0,0,0-.40466-.04083,3.82074,3.82074,0,1,0,3.53845,2.52679Z"></path><polygon fill="#0bceb2" points="13.431 52.103 14.375 50.862 13.779 50.524 13.173 51.914 13.153 51.914 12.538 50.534 11.931 50.881 12.865 52.093 12.865 52.113 11.405 51.924 11.405 52.599 12.875 52.411 12.875 52.431 11.931 53.642 12.497 54 13.144 52.599 13.163 52.599 13.759 53.99 14.385 53.632 13.431 52.44 13.431 52.421 14.931 52.599 14.931 51.924 13.431 52.123 13.431 52.103"></polygon><polygon fill="#0bceb2" points="36.752 103.111 37.691 101.876 37.098 101.539 36.495 102.923 36.475 102.923 35.862 101.549 35.258 101.895 36.188 103.102 36.188 103.121 34.734 102.933 34.734 103.606 36.198 103.418 36.198 103.438 35.258 104.644 35.822 105 36.465 103.606 36.484 103.606 37.078 104.99 37.701 104.634 36.752 103.447 36.752 103.428 38.244 103.606 38.244 102.933 36.752 103.131 36.752 103.111"></polygon><polygon fill="#0bceb2" points="116.777 3.067 115.92 4.166 116.434 4.49 117.02 3.22 117.038 3.22 117.578 4.481 118.146 4.157 117.281 3.075 117.281 3.057 118.641 3.22 118.641 2.607 117.281 2.787 117.281 2.769 118.137 1.643 117.597 1.337 117.047 2.598 117.029 2.598 116.471 1.345 115.92 1.661 116.768 2.76 116.768 2.778 115.443 2.607 115.443 3.22 116.777 3.049 116.777 3.067"></polygon><polygon fill="#0bceb2" points="144.11 64.543 144.11 63.841 142.55 64.047 142.55 64.026 143.532 62.735 142.912 62.384 142.282 63.83 142.261 63.83 141.621 62.394 140.99 62.756 141.961 64.016 141.961 64.037 140.442 63.841 140.442 64.543 141.971 64.347 141.971 64.368 140.99 65.628 141.578 66 142.251 64.543 142.271 64.543 142.891 65.989 143.542 65.618 142.55 64.378 142.55 64.357 144.11 64.543"></polygon><polygon fill="#0bceb2" points="128.55 92.026 129.532 90.735 128.912 90.384 128.282 91.83 128.261 91.83 127.621 90.394 126.99 90.756 127.961 92.016 127.961 92.037 126.442 91.841 126.442 92.543 127.971 92.347 127.971 92.368 126.99 93.628 127.578 94 128.251 92.543 128.271 92.543 128.891 93.989 129.542 93.618 128.55 92.378 128.55 92.357 130.11 92.543 130.11 91.841 128.55 92.047 128.55 92.026"></polygon><polygon fill="#0bceb2" points="24.55 9.026 25.532 7.735 24.912 7.384 24.282 8.83 24.261 8.83 23.621 7.394 22.99 7.756 23.961 9.016 23.961 9.037 22.442 8.841 22.442 9.543 23.971 9.347 23.971 9.368 22.99 10.628 23.578 11 24.251 9.543 24.271 9.543 24.891 10.989 25.542 10.618 24.55 9.378 24.55 9.357 26.11 9.543 26.11 8.841 24.55 9.047 24.55 9.026"></polygon><polygon fill="#0bceb2" points="52.775 6.981 51.754 8.292 52.366 8.679 53.066 7.163 53.087 7.163 53.732 8.668 54.409 8.281 53.377 6.991 53.377 6.97 55 7.163 55 6.432 53.377 6.647 53.377 6.626 54.399 5.282 53.754 4.917 53.098 6.421 53.076 6.421 52.41 4.927 51.754 5.304 52.764 6.615 52.764 6.637 51.184 6.432 51.184 7.163 52.775 6.959 52.775 6.981"></polygon><path fill="#0bceb2" d="M118.15381 154h-8.30762a2.00641 2.00641 0 0 0 0 4h8.30762a2.00641 2.00641 0 0 0 0-4zM58.15387 154H49.84613a2.00641 2.00641 0 0 0 0 4h8.30774a2.00641 2.00641 0 0 0 0-4zM104 154H64a2 2 0 0 0 0 4H79.94v2H72a2 2 0 0 0 0 4H97a2 2 0 0 0 0-4H88.06006v-2H104a2 2 0 0 0 0-4zM74 140H94a2 2 0 0 0 0-4H74a2 2 0 0 0 0 4zM76 32H92a2 2 0 0 0 0-4H76a2 2 0 0 0 0 4z"></path></svg>